<?xml version="1.0" encoding="UTF-8"?>
<svg xmlns="http://www.w3.org/2000/svg" xmlns:xlink="http://www.w3.org/1999/xlink" width="36px" height="36px" viewBox="0 0 36 36" version="1.1">
<g id="surface1">
<path style=" stroke:none;fill-rule:nonzero;fill:rgb(100%,100%,100%);fill-opacity:1;" d="M 35.835938 7.230469 C 35.511719 5.542969 34.6875 3.914062 33.386719 2.617188 C 32.519531 1.746094 31.507812 1.089844 30.433594 0.652344 C 28.816406 0 27.054688 -0.164062 25.367188 0.160156 C 23.683594 0.488281 22.058594 1.3125 20.753906 2.617188 L 13.820312 9.550781 C 13.785156 9.582031 13.753906 9.621094 13.722656 9.65625 C 13.734375 9.65625 13.746094 9.648438 13.757812 9.648438 C 15.792969 9.246094 17.886719 9.433594 19.8125 10.203125 C 19.820312 10.203125 19.832031 10.207031 19.839844 10.210938 L 24.097656 5.957031 C 24.511719 5.542969 24.980469 5.238281 25.488281 5.035156 C 26.242188 4.726562 27.078125 4.652344 27.875 4.808594 C 28.675781 4.960938 29.421875 5.339844 30.039062 5.957031 C 30.457031 6.371094 30.761719 6.84375 30.964844 7.347656 C 31.273438 8.101562 31.347656 8.941406 31.195312 9.738281 C 31.039062 10.535156 30.664062 11.28125 30.039062 11.898438 L 23.105469 18.832031 C 22.695312 19.25 22.226562 19.554688 21.71875 19.761719 C 20.964844 20.066406 20.125 20.144531 19.328125 19.988281 C 18.535156 19.835938 17.785156 19.457031 17.164062 18.832031 C 16.828125 18.5 16.566406 18.128906 16.371094 17.730469 C 16.347656 17.722656 16.328125 17.714844 16.308594 17.710938 C 15.84375 17.625 15.347656 17.675781 14.917969 17.855469 C 14.613281 17.980469 14.34375 18.164062 14.109375 18.398438 L 13.972656 18.535156 C 13.269531 19.390625 12.714844 20.59375 13.824219 22.183594 C 14.691406 23.046875 15.699219 23.707031 16.777344 24.140625 C 18.394531 24.796875 20.152344 24.957031 21.839844 24.628906 C 23.523438 24.304688 25.148438 23.480469 26.449219 22.179688 L 33.386719 15.246094 C 34.253906 14.378906 34.910156 13.367188 35.347656 12.289062 C 36 10.675781 36.160156 8.914062 35.835938 7.230469 Z M 35.835938 7.230469 "/>
<path style=" stroke:none;fill-rule:nonzero;fill:rgb(100%,100%,100%);fill-opacity:1;" d="M 16.1875 25.796875 C 16.175781 25.792969 16.167969 25.789062 16.160156 25.785156 L 11.902344 30.039062 C 11.488281 30.457031 11.019531 30.761719 10.511719 30.96875 C 9.761719 31.273438 8.921875 31.347656 8.125 31.195312 C 7.328125 31.042969 6.582031 30.664062 5.960938 30.039062 C 5.542969 29.625 5.242188 29.15625 5.035156 28.652344 C 4.726562 27.898438 4.652344 27.058594 4.808594 26.261719 C 4.960938 25.464844 5.339844 24.71875 5.960938 24.097656 L 12.894531 17.164062 C 13.308594 16.746094 13.777344 16.445312 14.285156 16.242188 C 15.035156 15.929688 15.875 15.855469 16.671875 16.007812 C 17.46875 16.164062 18.214844 16.542969 18.835938 17.164062 C 19.171875 17.496094 19.433594 17.871094 19.632812 18.269531 C 19.652344 18.277344 19.675781 18.28125 19.695312 18.289062 C 20.15625 18.371094 20.652344 18.320312 21.082031 18.144531 C 21.386719 18.015625 21.660156 17.832031 21.894531 17.597656 L 22.027344 17.460938 C 22.730469 16.609375 23.285156 15.402344 22.175781 13.816406 C 21.3125 12.949219 20.300781 12.292969 19.226562 11.859375 C 17.609375 11.207031 15.851562 11.042969 14.160156 11.367188 C 12.476562 11.691406 10.851562 12.519531 9.550781 13.820312 L 2.613281 20.753906 C 1.746094 21.621094 1.089844 22.632812 0.65625 23.710938 C 0 25.324219 -0.164062 27.085938 0.164062 28.769531 C 0.492188 30.460938 1.316406 32.082031 2.613281 33.382812 C 3.480469 34.253906 4.496094 34.910156 5.570312 35.347656 C 7.1875 36.003906 8.945312 36.164062 10.632812 35.835938 C 12.320312 35.511719 13.945312 34.691406 15.246094 33.382812 L 22.179688 26.449219 C 22.214844 26.414062 22.25 26.378906 22.28125 26.34375 C 22.269531 26.34375 22.253906 26.351562 22.246094 26.351562 C 20.207031 26.753906 18.113281 26.566406 16.1875 25.796875 Z M 16.1875 25.796875 "/>
</g>
</svg>
