<?xml version="1.0" encoding="UTF-8"?>
<svg xmlns="http://www.w3.org/2000/svg" xmlns:xlink="http://www.w3.org/1999/xlink" width="42px" height="42px" viewBox="0 0 42 42" version="1.1">
<g id="surface1">
<path style=" stroke:none;fill-rule:nonzero;fill:rgb(100%,100%,100%);fill-opacity:1;" d="M 34.824219 4.039062 C 34.542969 3.320312 33.53125 3.320312 33.25 4.039062 L 32.496094 5.953125 C 32.410156 6.171875 32.238281 6.347656 32.023438 6.433594 L 30.113281 7.1875 C 29.398438 7.472656 29.398438 8.484375 30.113281 8.769531 L 32.023438 9.523438 C 32.238281 9.609375 32.410156 9.785156 32.496094 10.003906 L 33.25 11.917969 C 33.53125 12.636719 34.542969 12.636719 34.824219 11.917969 L 35.578125 10.003906 C 35.664062 9.785156 35.835938 9.609375 36.054688 9.523438 L 37.964844 8.769531 C 38.679688 8.484375 38.679688 7.472656 37.964844 7.1875 L 36.054688 6.433594 C 35.835938 6.347656 35.664062 6.171875 35.578125 5.953125 Z M 34.824219 4.039062 "/>
<path style=" stroke:none;fill-rule:nonzero;fill:rgb(100%,100%,100%);fill-opacity:1;" d="M 28.058594 14.226562 C 27.777344 13.511719 26.765625 13.511719 26.484375 14.226562 L 26.207031 14.925781 C 26.121094 15.144531 25.949219 15.316406 25.730469 15.402344 L 25.035156 15.679688 C 24.320312 15.960938 24.320312 16.976562 25.035156 17.257812 L 25.730469 17.535156 C 25.949219 17.621094 26.121094 17.792969 26.207031 18.011719 L 26.484375 18.710938 C 26.765625 19.429688 27.777344 19.429688 28.058594 18.710938 L 28.332031 18.011719 C 28.417969 17.792969 28.589844 17.621094 28.808594 17.535156 L 29.503906 17.257812 C 30.21875 16.976562 30.21875 15.960938 29.503906 15.679688 L 28.808594 15.402344 C 28.589844 15.316406 28.417969 15.144531 28.332031 14.925781 Z M 28.058594 14.226562 "/>
<path style=" stroke:none;fill-rule:nonzero;fill:rgb(100%,100%,100%);fill-opacity:1;" d="M 21 38.5 C 30.664062 38.5 38.5 30.664062 38.5 21 C 38.5 20.191406 37.285156 20.054688 36.867188 20.75 C 34.875 24.046875 31.257812 26.25 27.125 26.25 C 20.84375 26.25 15.75 21.15625 15.75 14.875 C 15.75 10.742188 17.953125 7.125 21.25 5.132812 C 21.945312 4.714844 21.808594 3.5 21 3.5 C 11.335938 3.5 3.5 11.335938 3.5 21 C 3.5 30.664062 11.335938 38.5 21 38.5 Z M 21 38.5 "/>
</g>
</svg>
