<?xml version="1.0" encoding="UTF-8" standalone="no"?><!DOCTYPE svg PUBLIC "-//W3C//DTD SVG 1.1//EN" "http://www.w3.org/Graphics/SVG/1.1/DTD/svg11.dtd"><svg width="100%" height="100%" viewBox="0 0 267 267" version="1.1" xmlns="http://www.w3.org/2000/svg" xmlns:xlink="http://www.w3.org/1999/xlink" xml:space="preserve" xmlns:serif="http://www.serif.com/" style="fill-rule:evenodd;clip-rule:evenodd;stroke-linejoin:round;stroke-miterlimit:2;"><path d="M19.382,189.802c-43.616,-111.137 43.292,-201.383 125.637,-188.934c-20.21,19.729 -49.491,37.21 -60.73,62.46c-10.893,24.47 -11.486,59.855 -2.135,85.305c24.661,67.12 70.272,79.875 169.771,56.5c-11.123,34.228 -41.833,56.368 -87.041,61.445c-64.559,7.25 -112.16,-18.475 -145.501,-76.776Z" style="fill:#ddb6ff;fill-rule:nonzero;"/><path d="M254.101,93.357c3.631,-0 6.575,2.944 6.575,6.575c0,6.34 0,15.88 0,22.214c0,1.739 -0.691,3.408 -1.921,4.637c-1.23,1.23 -2.898,1.921 -4.637,1.921c-0.005,-0 -0.01,-0 -0.015,-0c-1.753,0 -3.434,-0.696 -4.673,-1.936c-1.239,-1.239 -1.936,-2.92 -1.936,-4.673c-0,-6.326 -0,-15.816 -0,-22.139c-0,-1.75 0.695,-3.429 1.933,-4.667c1.238,-1.238 2.916,-1.933 4.667,-1.933c0.002,-0 0.005,-0 0.007,-0Z" style="fill:#ddb6ff;"/><path d="M95.868,93.357c3.659,0 6.625,2.966 6.625,6.625c-0,6.323 -0,15.797 -0,22.114c0,1.753 -0.696,3.434 -1.936,4.673c-1.239,1.239 -2.92,1.936 -4.673,1.936c-0.005,-0 -0.01,-0 -0.015,-0c-1.739,-0 -3.408,-0.691 -4.637,-1.921c-1.23,-1.23 -1.921,-2.898 -1.921,-4.637c-0,-6.343 -0,-15.9 -0,-22.239c-0,-1.737 0.69,-3.403 1.918,-4.632c1.228,-1.228 2.894,-1.918 4.632,-1.918c0.002,0 0.005,0 0.007,0Z" style="fill:#ddb6ff;"/><path d="M227.787,99.248c1.731,0 3.39,0.687 4.614,1.911c1.224,1.224 1.911,2.883 1.911,4.614c0,3.253 0,7.177 0,10.44c-0,3.645 -2.955,6.6 -6.6,6.6c-0.005,-0 -0.01,-0 -0.015,-0c-3.627,0 -6.567,-2.94 -6.567,-6.567c-0,-3.228 -0,-7.11 -0,-10.349c-0,-1.764 0.701,-3.455 1.948,-4.702c1.247,-1.247 2.939,-1.948 4.702,-1.948c0.002,-0 0.005,-0 0.007,-0Z" style="fill:#ddb6ff;"/><path d="M122.232,99.248c3.659,0 6.625,2.966 6.625,6.625c-0,3.249 -0,7.151 -0,10.39c-0,3.617 -2.933,6.55 -6.55,6.55c-0.005,-0 -0.01,-0 -0.015,-0c-3.654,-0 -6.617,-2.962 -6.617,-6.617c0,-3.254 0,-7.163 0,-10.407c0,-1.735 0.689,-3.399 1.916,-4.626c1.227,-1.227 2.891,-1.916 4.626,-1.916c0.005,-0 0.01,-0 0.015,-0Z" style="fill:#ddb6ff;"/><path d="M201.382,69.792c1.742,-0 3.412,0.692 4.643,1.923c1.231,1.231 1.923,2.902 1.923,4.643c-0,14.468 -0,48.954 -0,63.437c-0,1.746 -0.694,3.421 -1.928,4.655c-1.235,1.235 -2.909,1.928 -4.655,1.928c-0.002,0 -0.005,0 -0.007,0c-1.748,0 -3.425,-0.694 -4.661,-1.931c-1.236,-1.236 -1.931,-2.913 -1.931,-4.661c-0,-14.474 -0,-48.897 -0,-63.387c0,-3.65 2.959,-6.608 6.608,-6.608c0.002,0 0.005,0 0.007,0Z" style="fill:#ddb6ff;"/><path d="M148.621,69.792c3.645,-0 6.6,2.955 6.6,6.6c0,14.479 0,48.892 0,63.379c-0,3.65 -2.959,6.608 -6.608,6.608c-0.005,-0 -0.01,-0 -0.015,-0c-3.622,-0 -6.558,-2.936 -6.558,-6.558c0,-14.466 0,-48.972 0,-63.454c0,-3.631 2.944,-6.575 6.575,-6.575c0.002,0 0.005,0 0.007,0Z" style="fill:#ddb6ff;"/><path d="M175.009,58.009c3.631,-0 6.575,2.944 6.575,6.575c0,19.006 0,73.869 0,92.885c-0,1.746 -0.694,3.421 -1.928,4.655c-1.235,1.235 -2.909,1.928 -4.655,1.928c-0.002,0 -0.005,0 -0.007,0c-1.748,0 -3.425,-0.694 -4.661,-1.931c-1.236,-1.236 -1.931,-2.913 -1.931,-4.661c0,-19.016 0,-73.825 0,-92.852c-0,-1.75 0.695,-3.429 1.933,-4.667c1.238,-1.238 2.916,-1.933 4.667,-1.933c0.002,-0 0.005,-0 0.007,-0Z" style="fill:#ddb6ff;"/></svg>