<?xml version="1.0" encoding="UTF-8"?>
<svg xmlns="http://www.w3.org/2000/svg" xmlns:xlink="http://www.w3.org/1999/xlink" width="37px" height="37px" viewBox="0 0 37 37" version="1.1">
<g id="surface1">
<path style=" stroke:none;fill-rule:evenodd;fill:rgb(100%,100%,100%);fill-opacity:1;" d="M 32.828125 18.5 C 32.828125 17.695312 32.753906 16.871094 32.605469 16.050781 L 36.65625 12.539062 L 32.8125 5.96875 L 27.703125 7.675781 C 26.410156 6.605469 24.9375 5.761719 23.386719 5.199219 L 22.332031 0 L 14.667969 0 L 13.613281 5.195312 C 12.042969 5.761719 10.597656 6.589844 9.296875 7.671875 L 4.191406 5.96875 L 0.347656 12.539062 L 4.398438 16.050781 C 4.246094 16.871094 4.175781 17.695312 4.175781 18.5 C 4.175781 19.304688 4.246094 20.128906 4.398438 20.949219 L 0.347656 24.460938 L 4.191406 31.03125 L 9.300781 29.324219 C 10.59375 30.394531 12.0625 31.238281 13.613281 31.800781 L 14.667969 37 L 22.332031 37 L 23.386719 31.804688 C 24.957031 31.238281 26.402344 30.410156 27.703125 29.328125 L 32.8125 31.03125 L 36.65625 24.464844 L 32.605469 20.953125 C 32.753906 20.128906 32.828125 19.304688 32.828125 18.5 M 18.5 26.117188 C 14.300781 26.117188 10.882812 22.703125 10.882812 18.5 C 10.882812 14.296875 14.300781 10.882812 18.5 10.882812 C 22.703125 10.882812 26.117188 14.296875 26.117188 18.5 C 26.117188 22.703125 22.703125 26.117188 18.5 26.117188 "/>
</g>
</svg>
