<?xml version="1.0" encoding="UTF-8"?>
<svg xmlns="http://www.w3.org/2000/svg" xmlns:xlink="http://www.w3.org/1999/xlink" width="42px" height="42px" viewBox="0 0 42 42" version="1.1">
<g id="surface1">
<path style=" stroke:none;fill-rule:nonzero;fill:rgb(100%,100%,100%);fill-opacity:1;" d="M 21 10.464844 C 15.179688 10.464844 10.464844 15.183594 10.464844 21 C 10.464844 26.820312 15.183594 31.535156 21 31.535156 C 26.816406 31.535156 31.535156 26.820312 31.535156 21 C 31.535156 15.183594 26.816406 10.464844 21 10.464844 Z M 21 10.464844 "/>
<path style=" stroke:none;fill-rule:nonzero;fill:rgb(100%,100%,100%);fill-opacity:1;" d="M 42 21 C 35.59375 16.976562 33.957031 13.328125 35.84375 6.15625 C 28.671875 8.042969 25.023438 6.40625 21 0 C 16.976562 6.40625 13.328125 8.042969 6.15625 6.15625 C 8.042969 13.328125 6.40625 16.976562 0 21 C 6.40625 25.023438 8.042969 28.671875 6.15625 35.84375 C 13.328125 33.957031 16.976562 35.59375 21 42 C 25.023438 35.59375 28.671875 33.957031 35.84375 35.84375 C 33.957031 28.671875 35.59375 25.023438 42 21 Z M 21 34.761719 C 13.398438 34.761719 7.238281 28.601562 7.238281 21 C 7.238281 13.398438 13.398438 7.238281 21 7.238281 C 28.601562 7.238281 34.761719 13.398438 34.761719 21 C 34.761719 28.601562 28.601562 34.761719 21 34.761719 Z M 21 34.761719 "/>
</g>
</svg>
